# Blender 4.2.0
# www.blender.org
mtllib camera.mtl
o Cube
v 0.067183 0.107280 -0.153345
v 0.067183 -0.107280 -0.153345
v 0.067183 0.107280 0.153345
v 0.067183 -0.107280 0.153345
v -0.067183 0.107280 -0.153345
v -0.067183 -0.107280 -0.153345
v -0.067183 0.107280 0.153345
v -0.067183 -0.107280 0.153345
v 0.069977 0.169655 -0.015889
v -0.069977 0.169655 -0.015889
v -0.069977 0.199219 -0.207186
v 0.069977 0.199219 -0.207186
v -0.069977 0.175084 -0.204808
v 0.069977 0.175084 -0.204808
v -0.069977 0.151877 -0.197769
v 0.069977 0.151877 -0.197769
v -0.069977 0.130489 -0.186337
v 0.069977 0.130489 -0.186337
v -0.069977 0.111742 -0.170952
v 0.069977 0.111742 -0.170952
v -0.069977 0.096357 -0.152205
v 0.069977 0.096357 -0.152205
v -0.069977 0.084925 -0.130817
v 0.069977 0.084925 -0.130817
v -0.069977 0.077885 -0.107610
v 0.069977 0.077885 -0.107610
v -0.069977 0.075508 -0.083475
v 0.069977 0.075508 -0.083475
v -0.069977 0.077885 -0.059340
v 0.069977 0.077885 -0.059340
v -0.069977 0.084925 -0.036133
v 0.069977 0.084925 -0.036133
v -0.069977 0.096357 -0.014745
v 0.069977 0.096357 -0.014745
v -0.069977 0.111742 0.004002
v 0.069977 0.111742 0.004002
v -0.069977 0.130489 0.019387
v 0.069977 0.130489 0.019387
v -0.069977 0.151877 0.030819
v 0.069977 0.151877 0.030819
v -0.069977 0.175084 0.037859
v 0.069977 0.175084 0.037859
v -0.069977 0.199219 0.040236
v 0.069977 0.199219 0.040236
v -0.069977 0.223354 0.037859
v 0.069977 0.223354 0.037859
v -0.069977 0.246561 0.030819
v 0.069977 0.246561 0.030819
v -0.069977 0.267949 0.019387
v 0.069977 0.267949 0.019387
v -0.069977 0.286695 0.004002
v 0.069977 0.286696 0.004002
v -0.069977 0.302080 -0.014745
v 0.069977 0.302080 -0.014745
v -0.069977 0.313513 -0.036133
v 0.069977 0.313513 -0.036133
v -0.069977 0.320552 -0.059340
v 0.069977 0.320552 -0.059340
v -0.069977 0.322930 -0.083475
v 0.069977 0.322930 -0.083475
v -0.069977 0.320552 -0.107610
v 0.069977 0.320552 -0.107610
v -0.069977 0.313513 -0.130817
v 0.069977 0.313513 -0.130817
v -0.069977 0.302080 -0.152205
v 0.069977 0.302080 -0.152205
v -0.069977 0.286696 -0.170951
v 0.069977 0.286696 -0.170952
v -0.069977 0.267949 -0.186337
v 0.069977 0.267949 -0.186337
v -0.069977 0.246561 -0.197769
v 0.069977 0.246561 -0.197769
v -0.069977 0.223354 -0.204808
v 0.069977 0.223354 -0.204808
v -0.069977 0.145520 -0.013512
v 0.069977 0.145520 -0.013512
v -0.069977 0.122313 -0.006472
v 0.069977 0.122313 -0.006472
v -0.069977 0.100925 0.004960
v 0.069977 0.100925 0.004960
v -0.069977 0.082178 0.020345
v 0.069977 0.082178 0.020345
v -0.069977 0.066793 0.039092
v 0.069977 0.066793 0.039092
v -0.069977 0.055361 0.060480
v 0.069977 0.055361 0.060480
v -0.069977 0.048321 0.083687
v 0.069977 0.048321 0.083687
v -0.069977 0.045944 0.107822
v 0.069977 0.045944 0.107822
v -0.069977 0.048321 0.131956
v 0.069977 0.048321 0.131956
v -0.069977 0.055361 0.155164
v 0.069977 0.055361 0.155164
v -0.069977 0.066793 0.176552
v 0.069977 0.066793 0.176552
v -0.069977 0.082178 0.195298
v 0.069977 0.082178 0.195298
v -0.069977 0.100925 0.210683
v 0.069977 0.100925 0.210683
v -0.069977 0.122313 0.222115
v 0.069977 0.122313 0.222115
v -0.069977 0.145520 0.229155
v 0.069977 0.145520 0.229155
v -0.069977 0.169655 0.231532
v 0.069977 0.169655 0.231532
v -0.069977 0.193790 0.229155
v 0.069977 0.193790 0.229155
v -0.069977 0.216997 0.222115
v 0.069977 0.216997 0.222115
v -0.069977 0.238385 0.210683
v 0.069977 0.238385 0.210683
v -0.069977 0.257131 0.195298
v 0.069977 0.257131 0.195298
v -0.069977 0.272516 0.176552
v 0.069977 0.272516 0.176552
v -0.069977 0.283949 0.155164
v 0.069977 0.283949 0.155164
v -0.069977 0.290988 0.131956
v 0.069977 0.290988 0.131956
v -0.069977 0.293366 0.107822
v 0.069977 0.293366 0.107822
v -0.069977 0.290988 0.083687
v 0.069977 0.290988 0.083687
v -0.069977 0.283949 0.060480
v 0.069977 0.283949 0.060480
v -0.069977 0.272516 0.039092
v 0.069977 0.272516 0.039092
v -0.069977 0.257132 0.020345
v 0.069977 0.257132 0.020345
v -0.069977 0.238385 0.004960
v 0.069977 0.238385 0.004960
v -0.069977 0.216997 -0.006472
v 0.069977 0.216997 -0.006472
v -0.069977 0.193790 -0.013512
v 0.069977 0.193790 -0.013512
v -0.001398 0.095840 -0.305096
v -0.001398 0.069050 -0.147784
v 0.013947 0.094329 -0.305096
v 0.008721 0.068053 -0.147784
v 0.028702 0.089853 -0.305096
v 0.018450 0.065102 -0.147784
v 0.042301 0.082584 -0.305096
v 0.027417 0.060309 -0.147784
v 0.054220 0.072802 -0.305096
v 0.035277 0.053859 -0.147784
v 0.064002 0.060883 -0.305096
v 0.041727 0.045999 -0.147784
v 0.071271 0.047285 -0.305096
v 0.046520 0.037033 -0.147784
v 0.075747 0.032529 -0.305096
v 0.049471 0.027303 -0.147784
v 0.077258 0.017185 -0.305096
v 0.050468 0.017185 -0.147784
v 0.075747 0.001840 -0.305096
v 0.049471 0.007066 -0.147784
v 0.071271 -0.012916 -0.305096
v 0.046520 -0.002663 -0.147784
v 0.064002 -0.026514 -0.305096
v 0.041727 -0.011630 -0.147784
v 0.054220 -0.038433 -0.305096
v 0.035277 -0.019490 -0.147784
v 0.042301 -0.048215 -0.305096
v 0.027417 -0.025940 -0.147784
v 0.028702 -0.055484 -0.305096
v 0.018450 -0.030733 -0.147784
v 0.013947 -0.059960 -0.305096
v 0.008721 -0.033684 -0.147784
v -0.001398 -0.061471 -0.305096
v -0.001398 -0.034681 -0.147784
v -0.016743 -0.059960 -0.305096
v -0.011516 -0.033684 -0.147784
v -0.031498 -0.055484 -0.305096
v -0.021246 -0.030733 -0.147784
v -0.045097 -0.048215 -0.305096
v -0.030213 -0.025940 -0.147784
v -0.057016 -0.038433 -0.305096
v -0.038072 -0.019490 -0.147784
v -0.066798 -0.026514 -0.305096
v -0.044522 -0.011630 -0.147784
v -0.074066 -0.012916 -0.305096
v -0.049315 -0.002663 -0.147784
v -0.078542 0.001840 -0.305096
v -0.052267 0.007066 -0.147784
v -0.080053 0.017185 -0.305096
v -0.053263 0.017185 -0.147784
v -0.078542 0.032529 -0.305096
v -0.052267 0.027303 -0.147784
v -0.074066 0.047285 -0.305096
v -0.049315 0.037033 -0.147784
v -0.066798 0.060883 -0.305096
v -0.044522 0.045999 -0.147784
v -0.057016 0.072802 -0.305096
v -0.038072 0.053859 -0.147784
v -0.045097 0.082584 -0.305096
v -0.030213 0.060309 -0.147784
v -0.031498 0.089853 -0.305096
v -0.021246 0.065102 -0.147784
v -0.016743 0.094329 -0.305096
v -0.011516 0.068053 -0.147784
v -0.001398 0.040944 0.138267
v -0.001398 0.041248 0.183781
v 0.001470 0.040661 0.138267
v 0.001530 0.040960 0.183781
v 0.004228 0.039824 0.138267
v 0.004345 0.040106 0.183781
v 0.006770 0.038466 0.138267
v 0.006939 0.038719 0.183781
v 0.008998 0.036638 0.138267
v 0.009213 0.036853 0.183781
v 0.010826 0.034410 0.138267
v 0.011079 0.034579 0.183781
v 0.012185 0.031868 0.138267
v 0.012466 0.031985 0.183781
v 0.013021 0.029110 0.138267
v 0.013320 0.029170 0.183781
v 0.013304 0.026242 0.138267
v 0.013608 0.026242 0.183781
v 0.013021 0.023374 0.138267
v 0.013320 0.023315 0.183781
v 0.012185 0.020616 0.138267
v 0.012466 0.020500 0.183781
v 0.010826 0.018074 0.138267
v 0.011079 0.017905 0.183781
v 0.008998 0.015847 0.138267
v 0.009213 0.015631 0.183781
v 0.006770 0.014018 0.138267
v 0.006939 0.013765 0.183781
v 0.004228 0.012660 0.138267
v 0.004345 0.012378 0.183781
v 0.001470 0.011823 0.138267
v 0.001530 0.011524 0.183781
v -0.001398 0.011541 0.138267
v -0.001398 0.011236 0.183781
v -0.004266 0.011823 0.138267
v -0.004325 0.011524 0.183781
v -0.007024 0.012660 0.138267
v -0.007140 0.012378 0.183781
v -0.009565 0.014018 0.138267
v -0.009735 0.013765 0.183781
v -0.011793 0.015847 0.138267
v -0.012009 0.015631 0.183781
v -0.013622 0.018074 0.138267
v -0.013875 0.017905 0.183781
v -0.014980 0.020616 0.138267
v -0.015262 0.020500 0.183781
v -0.015817 0.023374 0.138267
v -0.016115 0.023315 0.183781
v -0.016099 0.026242 0.138267
v -0.016404 0.026242 0.183781
v -0.015817 0.029110 0.138267
v -0.016115 0.029170 0.183781
v -0.014980 0.031868 0.138267
v -0.015262 0.031985 0.183781
v -0.013622 0.034410 0.138267
v -0.013875 0.034579 0.183781
v -0.011793 0.036638 0.138267
v -0.012009 0.036853 0.183781
v -0.009565 0.038466 0.138267
v -0.009735 0.038719 0.183781
v -0.007024 0.039824 0.138267
v -0.007140 0.040106 0.183781
v -0.004266 0.040661 0.138267
v -0.004325 0.040960 0.183781
v -0.001398 0.053906 0.221018
v 0.003999 0.053375 0.221018
v 0.009189 0.051800 0.221018
v 0.013971 0.049244 0.221018
v 0.018164 0.045803 0.221018
v 0.021604 0.041611 0.221018
v 0.024160 0.036829 0.221018
v 0.025735 0.031639 0.221018
v 0.026266 0.026242 0.221018
v 0.025735 0.020845 0.221018
v 0.024160 0.015656 0.221018
v 0.021604 0.010873 0.221018
v 0.018164 0.006681 0.221018
v 0.013971 0.003240 0.221018
v 0.009189 0.000684 0.221018
v 0.003999 -0.000890 0.221018
v -0.001398 -0.001422 0.221018
v -0.006795 -0.000890 0.221018
v -0.011984 0.000684 0.221018
v -0.016767 0.003240 0.221018
v -0.020959 0.006681 0.221018
v -0.024400 0.010873 0.221018
v -0.026956 0.015656 0.221018
v -0.028530 0.020845 0.221018
v -0.029062 0.026242 0.221018
v -0.028530 0.031639 0.221018
v -0.026956 0.036829 0.221018
v -0.024400 0.041611 0.221018
v -0.020959 0.045803 0.221018
v -0.016767 0.049244 0.221018
v -0.011984 0.051800 0.221018
v -0.006795 0.053375 0.221018
v -0.020694 -0.091642 -0.036020
v 0.022187 -0.091642 -0.036020
v -0.020694 -0.099037 -0.035292
v 0.022187 -0.099037 -0.035292
v -0.020694 -0.106148 -0.033135
v 0.022187 -0.106148 -0.033135
v -0.020694 -0.112701 -0.029632
v 0.022187 -0.112701 -0.029632
v -0.020694 -0.118445 -0.024918
v 0.022187 -0.118445 -0.024918
v -0.020694 -0.123159 -0.019174
v 0.022187 -0.123159 -0.019174
v -0.020694 -0.126661 -0.012621
v 0.022187 -0.126661 -0.012621
v -0.020694 -0.128818 -0.005510
v 0.022187 -0.128818 -0.005510
v -0.020694 -0.129547 0.001884
v 0.022187 -0.129547 0.001884
v -0.020694 -0.128818 0.009279
v 0.022187 -0.128818 0.009279
v -0.020694 -0.126661 0.016390
v 0.022187 -0.126661 0.016390
v -0.020694 -0.123159 0.022943
v 0.022187 -0.123159 0.022943
v -0.020694 -0.118445 0.028687
v 0.022187 -0.118445 0.028687
v -0.020694 -0.112701 0.033401
v 0.022187 -0.112701 0.033401
v -0.020694 -0.106148 0.036903
v 0.022187 -0.106148 0.036903
v -0.020694 -0.099037 0.039060
v 0.022187 -0.099037 0.039060
v -0.020694 -0.091642 0.039789
v 0.022187 -0.091642 0.039789
v -0.020694 -0.084247 0.039060
v 0.022187 -0.084247 0.039060
v -0.020694 -0.077137 0.036903
v 0.022187 -0.077137 0.036903
v -0.020694 -0.070584 0.033401
v 0.022187 -0.070584 0.033401
v -0.020694 -0.064840 0.028687
v 0.022187 -0.064840 0.028687
v -0.020694 -0.060126 0.022943
v 0.022187 -0.060126 0.022943
v -0.020694 -0.056623 0.016390
v 0.022187 -0.056623 0.016390
v -0.020694 -0.054466 0.009279
v 0.022187 -0.054466 0.009279
v -0.020694 -0.053738 0.001884
v 0.022187 -0.053738 0.001884
v -0.020694 -0.054466 -0.005510
v 0.022187 -0.054466 -0.005510
v -0.020694 -0.056623 -0.012621
v 0.022187 -0.056623 -0.012621
v -0.020694 -0.060126 -0.019174
v 0.022187 -0.060126 -0.019174
v -0.020694 -0.064840 -0.024918
v 0.022187 -0.064840 -0.024918
v -0.020694 -0.070584 -0.029632
v 0.022187 -0.070584 -0.029632
v -0.020694 -0.077137 -0.033135
v 0.022187 -0.077137 -0.033135
v -0.020694 -0.084247 -0.035292
v 0.022187 -0.084247 -0.035292
v 0.022187 -0.086195 0.025478
v -0.001398 0.083903 -0.275509
v 0.011618 0.082621 -0.275509
v 0.024134 0.078825 -0.275509
v 0.035669 0.072659 -0.275509
v 0.045780 0.064362 -0.275509
v 0.054077 0.054251 -0.275509
v 0.060242 0.042717 -0.275509
v 0.064039 0.030201 -0.275509
v 0.065321 0.017185 -0.275509
v 0.064039 0.004168 -0.275509
v 0.060242 -0.008348 -0.275509
v 0.054077 -0.019882 -0.275509
v 0.045780 -0.029993 -0.275509
v 0.035669 -0.038290 -0.275509
v 0.024134 -0.044456 -0.275509
v 0.011618 -0.048252 -0.275509
v -0.001398 -0.049534 -0.275509
v -0.014414 -0.048252 -0.275509
v -0.026930 -0.044456 -0.275509
v -0.038465 -0.038290 -0.275509
v -0.048575 -0.029993 -0.275509
v -0.056872 -0.019882 -0.275509
v -0.063038 -0.008348 -0.275509
v -0.066835 0.004168 -0.275509
v -0.068117 0.017185 -0.275509
v -0.066835 0.030201 -0.275509
v -0.063038 0.042717 -0.275509
v -0.056872 0.054251 -0.275509
v -0.048575 0.064362 -0.275509
v -0.038465 0.072659 -0.275509
v -0.026930 0.078825 -0.275509
v -0.014414 0.082621 -0.275509
vn -0.0000 1.0000 -0.0000
vn -0.0000 -0.0000 1.0000
vn -1.0000 -0.0000 -0.0000
vn -0.0000 -1.0000 -0.0000
vn 1.0000 -0.0000 -0.0000
vn -0.0000 -0.0000 -1.0000
vn -0.0000 -0.1951 -0.9808
vn -0.0000 0.5556 -0.8315
vn -0.0000 0.3827 -0.9239
vn -0.0000 -0.3827 -0.9239
vn -0.0000 0.7071 -0.7071
vn -0.0000 -0.5556 -0.8315
vn -0.0000 0.8315 -0.5556
vn -0.0000 -0.7071 -0.7071
vn -0.0000 0.9239 -0.3827
vn -0.0000 -0.8315 -0.5556
vn -0.0000 0.9808 -0.1951
vn -0.0000 -0.9239 -0.3827
vn -0.0000 -0.9808 -0.1951
vn -0.0000 0.9808 0.1951
vn -0.0000 0.9239 0.3827
vn -0.0000 -0.9808 0.1951
vn -0.0000 0.8315 0.5556
vn -0.0000 -0.9239 0.3827
vn -0.0000 0.7071 0.7071
vn -0.0000 -0.8315 0.5556
vn -0.0000 0.5556 0.8315
vn -0.0000 -0.7071 0.7071
vn -0.0000 0.3827 0.9239
vn -0.0000 -0.5556 0.8315
vn -0.0000 0.1951 0.9808
vn -0.0000 -0.3827 0.9239
vn -0.0000 -0.1951 0.9808
vn -0.0000 0.1951 -0.9808
vn -0.0000 0.9858 0.1679
vn 0.1914 0.9671 0.1679
vn 0.1874 0.9678 0.1679
vn 0.3761 0.9112 0.1679
vn 0.3698 0.9138 0.1679
vn 0.5469 0.8202 0.1679
vn 0.5401 0.8247 0.1679
vn 0.6968 0.6974 0.1679
vn 0.6911 0.7030 0.1679
vn 0.8196 0.5477 0.1679
vn 0.8158 0.5534 0.1679
vn 0.9108 0.3772 0.1679
vn 0.9089 0.3817 0.1679
vn 0.9669 0.1922 0.1679
vn 0.9664 0.1948 0.1679
vn 0.9858 -0.0000 0.1679
vn 0.9669 -0.1922 0.1679
vn 0.9664 -0.1948 0.1679
vn 0.9108 -0.3772 0.1679
vn 0.9089 -0.3817 0.1679
vn 0.8196 -0.5477 0.1679
vn 0.8158 -0.5534 0.1679
vn 0.6968 -0.6974 0.1679
vn 0.6911 -0.7030 0.1679
vn 0.5469 -0.8202 0.1679
vn 0.5401 -0.8247 0.1679
vn 0.3761 -0.9112 0.1679
vn 0.3698 -0.9138 0.1679
vn 0.1914 -0.9671 0.1679
vn 0.1874 -0.9678 0.1679
vn -0.0000 -0.9858 0.1679
vn -0.1914 -0.9671 0.1679
vn -0.1874 -0.9678 0.1679
vn -0.3761 -0.9112 0.1679
vn -0.3698 -0.9138 0.1679
vn -0.5469 -0.8202 0.1679
vn -0.5401 -0.8247 0.1679
vn -0.6968 -0.6974 0.1679
vn -0.6911 -0.7030 0.1679
vn -0.8196 -0.5477 0.1679
vn -0.8158 -0.5534 0.1679
vn -0.9108 -0.3772 0.1679
vn -0.9089 -0.3817 0.1679
vn -0.9669 -0.1922 0.1679
vn -0.9664 -0.1948 0.1679
vn -0.9858 -0.0000 0.1679
vn -0.9669 0.1922 0.1679
vn -0.9664 0.1948 0.1679
vn -0.9108 0.3772 0.1679
vn -0.9089 0.3817 0.1679
vn -0.8196 0.5477 0.1679
vn -0.8158 0.5534 0.1679
vn -0.6968 0.6974 0.1679
vn -0.6911 0.7030 0.1679
vn -0.5469 0.8202 0.1679
vn -0.5401 0.8247 0.1679
vn -0.3761 0.9112 0.1679
vn -0.3698 0.9138 0.1679
vn -0.1914 0.9671 0.1679
vn -0.1874 0.9678 0.1679
vn -0.8539 -0.3618 -0.3741
vn -0.9088 -0.1848 -0.3741
vn -0.9099 -0.1792 -0.3742
vn -0.8580 -0.3519 -0.3742
vn -0.0000 1.0000 -0.0067
vn -0.0000 0.9856 -0.1692
vn 0.1912 0.9669 -0.1691
vn 0.1922 0.9813 -0.0067
vn 0.3759 0.9111 -0.1690
vn 0.3784 0.9256 -0.0067
vn 0.5466 0.8201 -0.1690
vn 0.5514 0.8342 -0.0067
vn 0.6965 0.6974 -0.1692
vn 0.7040 0.7102 -0.0067
vn 0.8193 0.5477 -0.1694
vn 0.8295 0.5584 -0.0067
vn 0.9105 0.3771 -0.1696
vn 0.9230 0.3848 -0.0067
vn 0.9666 0.1922 -0.1697
vn 0.9805 0.1962 -0.0067
vn 0.9855 -0.0000 -0.1698
vn 1.0000 -0.0000 -0.0067
vn 0.9666 -0.1922 -0.1697
vn 0.9805 -0.1962 -0.0067
vn 0.9105 -0.3771 -0.1696
vn 0.9230 -0.3848 -0.0067
vn 0.8193 -0.5477 -0.1694
vn 0.8295 -0.5584 -0.0067
vn 0.6965 -0.6974 -0.1692
vn 0.7040 -0.7102 -0.0067
vn 0.5466 -0.8201 -0.1690
vn 0.5514 -0.8342 -0.0067
vn 0.3759 -0.9111 -0.1690
vn 0.3784 -0.9256 -0.0067
vn 0.1912 -0.9669 -0.1691
vn 0.1922 -0.9813 -0.0067
vn -0.0000 -0.9856 -0.1692
vn -0.0000 -1.0000 -0.0067
vn -0.1912 -0.9669 -0.1691
vn -0.1922 -0.9813 -0.0067
vn -0.3759 -0.9111 -0.1690
vn -0.3784 -0.9256 -0.0067
vn -0.5466 -0.8201 -0.1690
vn -0.5514 -0.8342 -0.0067
vn -0.6965 -0.6974 -0.1692
vn -0.7040 -0.7102 -0.0067
vn -0.8193 -0.5477 -0.1694
vn -0.8295 -0.5584 -0.0067
vn -0.9105 -0.3771 -0.1696
vn -0.9230 -0.3848 -0.0067
vn -0.9666 -0.1922 -0.1697
vn -0.9805 -0.1962 -0.0067
vn -0.9855 -0.0000 -0.1698
vn -1.0000 -0.0000 -0.0067
vn -0.9666 0.1922 -0.1697
vn -0.9805 0.1962 -0.0067
vn -0.9105 0.3771 -0.1696
vn -0.9230 0.3848 -0.0067
vn -0.8193 0.5477 -0.1694
vn -0.8295 0.5584 -0.0067
vn -0.6965 0.6974 -0.1692
vn -0.7040 0.7102 -0.0067
vn -0.5466 0.8201 -0.1690
vn -0.5514 0.8342 -0.0067
vn -0.3759 0.9111 -0.1690
vn -0.3784 0.9256 -0.0067
vn 0.1784 0.9298 -0.3218
vn 0.3525 0.8788 -0.3218
vn -0.1912 0.9669 -0.1691
vn -0.1922 0.9813 -0.0067
vn 0.8721 -0.3687 -0.3218
vn 0.7818 -0.5341 -0.3218
vn -0.5158 -0.7940 -0.3218
vn -0.6612 -0.6777 -0.3218
vn -0.6612 0.6777 -0.3218
vn -0.5158 0.7940 -0.3218
vn 0.8721 0.3687 -0.3218
vn 0.9279 0.1882 -0.3218
vn 0.1784 -0.9298 -0.3218
vn -0.0000 -0.9468 -0.3218
vn -0.9468 -0.0000 -0.3218
vn -0.9279 0.1882 -0.3218
vn 0.5158 0.7940 -0.3218
vn 0.6612 -0.6777 -0.3218
vn -0.7818 -0.5341 -0.3218
vn -0.3525 0.8788 -0.3218
vn 0.9468 -0.0000 -0.3218
vn -0.1784 -0.9298 -0.3218
vn -0.8721 0.3687 -0.3218
vn 0.6612 0.6777 -0.3218
vn 0.5158 -0.7940 -0.3218
vn -0.8721 -0.3687 -0.3218
vn -0.1784 0.9298 -0.3218
vn 0.9279 -0.1882 -0.3218
vn -0.3525 -0.8788 -0.3218
vn -0.7818 0.5341 -0.3218
vn 0.7818 0.5341 -0.3218
vn 0.3525 -0.8788 -0.3218
vn -0.9279 -0.1882 -0.3218
vn -0.0000 0.9468 -0.3218
vn -0.1742 0.9109 -0.3741
vn -0.0000 0.9274 -0.3742
vn -0.1825 0.9092 -0.3742
vn 0.9274 -0.0000 -0.3742
vn 0.9088 -0.1848 -0.3741
vn 0.9099 -0.1792 -0.3742
vn -0.3443 -0.8611 -0.3741
vn -0.5043 -0.7783 -0.3741
vn -0.5187 -0.7687 -0.3741
vn -0.3578 -0.8556 -0.3742
vn -0.7652 0.5240 -0.3741
vn -0.6468 0.6646 -0.3741
vn -0.6590 0.6525 -0.3741
vn -0.7734 0.5117 -0.3741
vn 0.6468 0.6646 -0.3741
vn 0.7652 0.5240 -0.3741
vn 0.7734 0.5117 -0.3741
vn 0.6590 0.6525 -0.3741
vn 0.5043 -0.7783 -0.3741
vn 0.3443 -0.8611 -0.3741
vn 0.3578 -0.8556 -0.3742
vn 0.5187 -0.7687 -0.3741
vn -0.9274 -0.0000 -0.3742
vn 0.1742 0.9109 -0.3741
vn 0.1825 0.9092 -0.3742
vn 0.8539 -0.3618 -0.3741
vn 0.8580 -0.3519 -0.3742
vn -0.6468 -0.6646 -0.3741
vn -0.6590 -0.6525 -0.3741
vn -0.5043 0.7783 -0.3741
vn -0.5187 0.7687 -0.3741
vn 0.8539 0.3618 -0.3741
vn 0.8580 0.3519 -0.3742
vn 0.1742 -0.9109 -0.3741
vn 0.1825 -0.9092 -0.3742
vn -0.9088 0.1848 -0.3741
vn -0.9099 0.1792 -0.3742
vn 0.3443 0.8611 -0.3741
vn 0.3578 0.8556 -0.3742
vn 0.7652 -0.5240 -0.3741
vn 0.7734 -0.5117 -0.3741
vn -0.7652 -0.5240 -0.3741
vn -0.7734 -0.5117 -0.3741
vn -0.3443 0.8611 -0.3741
vn -0.3578 0.8556 -0.3742
vn 0.9088 0.1848 -0.3741
vn 0.9099 0.1792 -0.3742
vn -0.0000 -0.9274 -0.3742
vn -0.1742 -0.9109 -0.3741
vn -0.1825 -0.9092 -0.3742
vn -0.8539 0.3618 -0.3741
vn -0.8580 0.3519 -0.3742
vn 0.5043 0.7783 -0.3741
vn 0.5187 0.7687 -0.3741
vn 0.6468 -0.6646 -0.3741
vn 0.6590 -0.6525 -0.3741
vt 0.625000 0.500000
vt 0.875000 0.500000
vt 0.875000 0.750000
vt 0.625000 0.750000
vt 0.375000 0.750000
vt 0.625000 1.000000
vt 0.375000 1.000000
vt 0.375000 0.000000
vt 0.625000 0.000000
vt 0.625000 0.250000
vt 0.375000 0.250000
vt 0.125000 0.500000
vt 0.375000 0.500000
vt 0.125000 0.750000
vt 0.296822 0.485388
vt 0.250000 0.490000
vt 0.203178 0.485388
vt 0.158156 0.471731
vt 0.116663 0.449553
vt 0.080294 0.419706
vt 0.050447 0.383337
vt 0.028269 0.341844
vt 0.014612 0.296822
vt 0.010000 0.250000
vt 0.014612 0.203178
vt 0.028269 0.158156
vt 0.050447 0.116663
vt 0.080294 0.080294
vt 0.116663 0.050447
vt 0.158156 0.028269
vt 0.203178 0.014612
vt 0.250000 0.010000
vt 0.296822 0.014612
vt 0.341844 0.028269
vt 0.383337 0.050447
vt 0.419706 0.080294
vt 0.449553 0.116663
vt 0.471731 0.158156
vt 0.485388 0.203178
vt 0.490000 0.250000
vt 0.485388 0.296822
vt 0.471731 0.341844
vt 0.449553 0.383337
vt 0.419706 0.419706
vt 0.383337 0.449553
vt 0.341844 0.471731
vt 1.000000 0.500000
vt 1.000000 1.000000
vt 0.968750 1.000000
vt 0.968750 0.500000
vt 0.093750 0.500000
vt 0.093750 1.000000
vt 0.062500 1.000000
vt 0.062500 0.500000
vt 0.937500 1.000000
vt 0.937500 0.500000
vt 0.125000 1.000000
vt 0.906250 1.000000
vt 0.906250 0.500000
vt 0.156250 0.500000
vt 0.156250 1.000000
vt 0.875000 1.000000
vt 0.187500 0.500000
vt 0.187500 1.000000
vt 0.843750 1.000000
vt 0.843750 0.500000
vt 0.218750 0.500000
vt 0.218750 1.000000
vt 0.812500 1.000000
vt 0.812500 0.500000
vt 0.250000 0.500000
vt 0.250000 1.000000
vt 0.781250 1.000000
vt 0.781250 0.500000
vt 0.281250 0.500000
vt 0.281250 1.000000
vt 0.750000 1.000000
vt 0.750000 0.500000
vt 0.312500 0.500000
vt 0.312500 1.000000
vt 0.718750 1.000000
vt 0.718750 0.500000
vt 0.343750 0.500000
vt 0.343750 1.000000
vt 0.687500 1.000000
vt 0.687500 0.500000
vt 0.656250 1.000000
vt 0.656250 0.500000
vt 0.406250 0.500000
vt 0.406250 1.000000
vt 0.437500 0.500000
vt 0.437500 1.000000
vt 0.593750 1.000000
vt 0.593750 0.500000
vt 0.468750 0.500000
vt 0.468750 1.000000
vt 0.562500 1.000000
vt 0.562500 0.500000
vt 0.500000 0.500000
vt 0.500000 1.000000
vt 0.531250 1.000000
vt 0.531250 0.500000
vt 0.750000 0.490000
vt 0.796822 0.485388
vt 0.841844 0.471731
vt 0.883337 0.449553
vt 0.919706 0.419706
vt 0.949553 0.383337
vt 0.971731 0.341844
vt 0.985388 0.296822
vt 0.990000 0.250000
vt 0.985388 0.203178
vt 0.971731 0.158156
vt 0.949553 0.116663
vt 0.919706 0.080294
vt 0.883337 0.050447
vt 0.841844 0.028269
vt 0.796822 0.014612
vt 0.750000 0.010000
vt 0.703178 0.014612
vt 0.658156 0.028269
vt 0.616663 0.050447
vt 0.580294 0.080294
vt 0.550447 0.116663
vt 0.528269 0.158156
vt 0.514612 0.203178
vt 0.510000 0.250000
vt 0.514612 0.296822
vt 0.528269 0.341844
vt 0.550447 0.383337
vt 0.580294 0.419706
vt 0.616663 0.449553
vt 0.658156 0.471731
vt 0.703178 0.485388
vt 0.031250 0.500000
vt 0.031250 1.000000
vt 0.000000 1.000000
vt 0.000000 0.500000
vt 0.203178 0.485388
vt 0.080294 0.419706
vt 0.080294 0.080294
vt 0.203178 0.014612
vt 0.419706 0.080294
vt 0.419706 0.419706
s 1
usemtl Material
f 1/1/1 5/2/1 7/3/1 3/4/1
f 4/5/2 3/4/2 7/6/2 8/7/2
f 8/8/3 7/9/3 5/10/3 6/11/3
f 6/12/4 2/13/4 4/5/4 8/14/4
f 2/13/5 1/1/5 3/4/5 4/5/5
f 6/11/6 5/10/6 1/1/6 2/13/6
f 76/15/5 9/16/5 136/17/5 134/18/5 132/19/5 130/20/5 128/21/5 126/22/5 124/23/5 122/24/5 120/25/5 118/26/5 116/27/5 114/28/5 112/29/5 110/30/5 108/31/5 106/32/5 104/33/5 102/34/5 100/35/5 98/36/5 96/37/5 94/38/5 92/39/5 90/40/5 88/41/5 86/42/5 84/43/5 82/44/5 80/45/5 78/46/5
f 11/47/6 12/48/6 14/49/7 13/50/7
f 131/51/8 132/52/8 134/53/9 133/54/9
f 13/50/7 14/49/7 16/55/10 15/56/10
f 129/12/11 130/57/11 132/52/8 131/51/8
f 15/56/10 16/55/10 18/58/12 17/59/12
f 127/60/13 128/61/13 130/57/11 129/12/11
f 17/59/12 18/58/12 20/62/14 19/2/14
f 125/63/15 126/64/15 128/61/13 127/60/13
f 19/2/14 20/62/14 22/65/16 21/66/16
f 123/67/17 124/68/17 126/64/15 125/63/15
f 21/66/16 22/65/16 24/69/18 23/70/18
f 121/71/1 122/72/1 124/68/17 123/67/17
f 23/70/18 24/69/18 26/73/19 25/74/19
f 119/75/20 120/76/20 122/72/1 121/71/1
f 25/74/19 26/73/19 28/77/4 27/78/4
f 117/79/21 118/80/21 120/76/20 119/75/20
f 27/78/4 28/77/4 30/81/22 29/82/22
f 115/83/23 116/84/23 118/80/21 117/79/21
f 29/82/22 30/81/22 32/85/24 31/86/24
f 113/13/25 114/7/25 116/84/23 115/83/23
f 31/86/24 32/85/24 34/87/26 33/88/26
f 111/89/27 112/90/27 114/7/25 113/13/25
f 33/88/26 34/87/26 36/6/28 35/1/28
f 109/91/29 110/92/29 112/90/27 111/89/27
f 35/1/28 36/6/28 38/93/30 37/94/30
f 107/95/31 108/96/31 110/92/29 109/91/29
f 37/94/30 38/93/30 40/97/32 39/98/32
f 105/99/2 106/100/2 108/96/31 107/95/31
f 39/98/32 40/97/32 42/101/33 41/102/33
f 103/102/33 104/101/33 106/100/2 105/99/2
f 41/102/33 42/101/33 44/100/2 43/99/2
f 101/98/32 102/97/32 104/101/33 103/102/33
f 43/99/2 44/100/2 46/96/31 45/95/31
f 99/94/30 100/93/30 102/97/32 101/98/32
f 45/95/31 46/96/31 48/92/29 47/91/29
f 97/1/28 98/6/28 100/93/30 99/94/30
f 47/91/29 48/92/29 50/90/27 49/89/27
f 95/88/26 96/87/26 98/6/28 97/1/28
f 49/89/27 50/90/27 52/7/25 51/13/25
f 93/86/24 94/85/24 96/87/26 95/88/26
f 51/13/25 52/7/25 54/84/23 53/83/23
f 91/82/22 92/81/22 94/85/24 93/86/24
f 53/83/23 54/84/23 56/80/21 55/79/21
f 89/78/4 90/77/4 92/81/22 91/82/22
f 55/79/21 56/80/21 58/76/20 57/75/20
f 87/74/19 88/73/19 90/77/4 89/78/4
f 57/75/20 58/76/20 60/72/1 59/71/1
f 85/70/18 86/69/18 88/73/19 87/74/19
f 59/71/1 60/72/1 62/68/17 61/67/17
f 83/66/16 84/65/16 86/69/18 85/70/18
f 61/67/17 62/68/17 64/64/15 63/63/15
f 81/2/14 82/62/14 84/65/16 83/66/16
f 63/63/15 64/64/15 66/61/13 65/60/13
f 79/59/12 80/58/12 82/62/14 81/2/14
f 65/60/13 66/61/13 68/57/11 67/12/11
f 10/103/3 75/104/3 77/105/3 79/106/3 81/107/3 83/108/3 85/109/3 87/110/3 89/111/3 91/112/3 93/113/3 95/114/3 97/115/3 99/116/3 101/117/3 103/118/3 105/119/3 107/120/3 109/121/3 111/122/3 113/123/3 115/124/3 117/125/3 119/126/3 121/127/3 123/128/3 125/129/3 127/130/3 129/131/3 131/132/3 133/133/3 135/134/3
f 77/56/10 78/55/10 80/58/12 79/59/12
f 67/12/11 68/57/11 70/52/8 69/51/8
f 135/135/34 136/136/34 9/137/6 10/138/6
f 75/50/7 76/49/7 78/55/10 77/56/10
f 69/51/8 70/52/8 72/53/9 71/54/9
f 14/15/5 12/16/5 74/17/5 72/18/5 70/19/5 68/20/5 66/21/5 64/22/5 62/23/5 60/24/5 58/25/5 56/26/5 54/27/5 52/28/5 50/29/5 48/30/5 46/31/5 44/32/5 42/33/5 40/34/5 38/35/5 36/36/5 34/37/5 32/38/5 30/39/5 28/40/5 26/41/5 24/42/5 22/43/5 20/44/5 18/45/5 16/46/5
f 10/47/6 9/48/6 76/49/7 75/50/7
f 71/54/9 72/53/9 74/136/34 73/135/34
f 133/54/9 134/53/9 136/136/34 135/135/34
f 73/135/34 74/136/34 12/137/6 11/138/6
f 11/103/3 13/104/3 15/105/3 17/106/3 19/107/3 21/108/3 23/109/3 25/110/3 27/111/3 29/112/3 31/113/3 33/114/3 35/115/3 37/116/3 39/117/3 41/118/3 43/119/3 45/120/3 47/121/3 49/122/3 51/123/3 53/124/3 55/125/3 57/126/3 59/127/3 61/128/3 63/129/3 65/130/3 67/131/3 69/132/3 71/133/3 73/134/3
f 137/47/35 138/48/35 140/49/36 139/50/37
f 139/50/37 140/49/36 142/55/38 141/56/39
f 141/56/39 142/55/38 144/58/40 143/59/41
f 143/59/41 144/58/40 146/62/42 145/2/43
f 145/2/43 146/62/42 148/65/44 147/66/45
f 147/66/45 148/65/44 150/69/46 149/70/47
f 149/70/47 150/69/46 152/73/48 151/74/49
f 151/74/49 152/73/48 154/77/50 153/78/50
f 153/78/50 154/77/50 156/81/51 155/82/52
f 155/82/52 156/81/51 158/85/53 157/86/54
f 157/86/54 158/85/53 160/87/55 159/88/56
f 159/88/56 160/87/55 162/6/57 161/1/58
f 161/1/58 162/6/57 164/93/59 163/94/60
f 163/94/60 164/93/59 166/97/61 165/98/62
f 165/98/62 166/97/61 168/101/63 167/102/64
f 167/102/64 168/101/63 170/100/65 169/99/65
f 169/99/65 170/100/65 172/96/66 171/95/67
f 171/95/67 172/96/66 174/92/68 173/91/69
f 173/91/69 174/92/68 176/90/70 175/89/71
f 175/89/71 176/90/70 178/7/72 177/13/73
f 177/13/73 178/7/72 180/84/74 179/83/75
f 179/83/75 180/84/74 182/80/76 181/79/77
f 181/79/77 182/80/76 184/76/78 183/75/79
f 183/75/79 184/76/78 186/72/80 185/71/80
f 185/71/80 186/72/80 188/68/81 187/67/82
f 187/67/82 188/68/81 190/64/83 189/63/84
f 189/63/84 190/64/83 192/61/85 191/60/86
f 191/60/86 192/61/85 194/57/87 193/12/88
f 193/12/88 194/57/87 196/52/89 195/51/90
f 195/51/90 196/52/89 198/53/91 197/54/92
f 140/15/2 138/16/2 200/139/2 198/18/2 196/19/2 194/140/2 192/21/2 190/22/2 188/23/2 186/24/2 184/25/2 182/26/2 180/27/2 178/141/2 176/29/2 174/30/2 172/142/2 170/32/2 168/33/2 166/34/2 164/35/2 162/143/2 160/37/2 158/38/2 156/39/2 154/40/2 152/41/2 150/42/2 148/43/2 146/144/2 144/45/2 142/46/2
f 197/54/92 198/53/91 200/136/93 199/135/94
f 199/135/94 200/136/93 138/137/35 137/138/35
f 149/70/95 151/74/96 369/74/97 368/70/98
f 201/47/99 202/48/100 204/49/101 203/50/102
f 203/50/102 204/49/101 206/55/103 205/56/104
f 205/56/104 206/55/103 208/58/105 207/59/106
f 207/59/106 208/58/105 210/62/107 209/2/108
f 209/2/108 210/62/107 212/65/109 211/66/110
f 211/66/110 212/65/109 214/69/111 213/70/112
f 213/70/112 214/69/111 216/73/113 215/74/114
f 215/74/114 216/73/113 218/77/115 217/78/116
f 217/78/116 218/77/115 220/81/117 219/82/118
f 219/82/118 220/81/117 222/85/119 221/86/120
f 221/86/120 222/85/119 224/87/121 223/88/122
f 223/88/122 224/87/121 226/6/123 225/1/124
f 225/1/124 226/6/123 228/93/125 227/94/126
f 227/94/126 228/93/125 230/97/127 229/98/128
f 229/98/128 230/97/127 232/101/129 231/102/130
f 231/102/130 232/101/129 234/100/131 233/99/132
f 233/99/132 234/100/131 236/96/133 235/95/134
f 235/95/134 236/96/133 238/92/135 237/91/136
f 237/91/136 238/92/135 240/90/137 239/89/138
f 239/89/138 240/90/137 242/7/139 241/13/140
f 241/13/140 242/7/139 244/84/141 243/83/142
f 243/83/142 244/84/141 246/80/143 245/79/144
f 245/79/144 246/80/143 248/76/145 247/75/146
f 247/75/146 248/76/145 250/72/147 249/71/148
f 249/71/148 250/72/147 252/68/149 251/67/150
f 251/67/150 252/68/149 254/64/151 253/63/152
f 253/63/152 254/64/151 256/61/153 255/60/154
f 255/60/154 256/61/153 258/57/155 257/12/156
f 257/12/156 258/57/155 260/52/157 259/51/158
f 259/51/158 260/52/157 262/53/159 261/54/160
f 206/55/103 204/49/101 266/49/161 267/55/162
f 261/54/160 262/53/159 264/136/163 263/135/164
f 263/135/164 264/136/163 202/137/100 201/138/99
f 201/103/6 203/104/6 205/105/6 207/106/6 209/107/6 211/108/6 213/109/6 215/110/6 217/111/6 219/112/6 221/113/6 223/114/6 225/115/6 227/116/6 229/117/6 231/118/6 233/119/6 235/120/6 237/121/6 239/122/6 241/123/6 243/124/6 245/125/6 247/126/6 249/127/6 251/128/6 253/129/6 255/130/6 257/131/6 259/132/6 261/133/6 263/134/6
f 266/15/2 265/16/2 296/139/2 295/18/2 294/19/2 293/140/2 292/21/2 291/22/2 290/23/2 289/24/2 288/25/2 287/26/2 286/27/2 285/141/2 284/29/2 283/30/2 282/142/2 281/32/2 280/33/2 279/34/2 278/35/2 277/143/2 276/37/2 275/38/2 274/39/2 273/40/2 272/41/2 271/42/2 270/43/2 269/144/2 268/45/2 267/46/2
f 224/87/121 222/85/119 275/85/165 276/87/166
f 242/7/139 240/90/137 284/90/167 285/7/168
f 260/52/157 258/57/155 293/57/169 294/52/170
f 216/73/113 214/69/111 271/69/171 272/73/172
f 234/100/131 232/101/129 280/101/173 281/100/174
f 252/68/149 250/72/147 289/72/175 290/68/176
f 208/58/105 206/55/103 267/55/162 268/58/177
f 226/6/123 224/87/121 276/87/166 277/6/178
f 244/84/141 242/7/139 285/7/168 286/84/179
f 262/53/159 260/52/157 294/52/170 295/53/180
f 218/77/115 216/73/113 272/73/172 273/77/181
f 236/96/133 234/100/131 281/100/174 282/96/182
f 254/64/151 252/68/149 290/68/176 291/64/183
f 210/62/107 208/58/105 268/58/177 269/62/184
f 228/93/125 226/6/123 277/6/178 278/93/185
f 246/80/143 244/84/141 286/84/179 287/80/186
f 264/136/163 262/53/159 295/53/180 296/136/187
f 220/81/117 218/77/115 273/77/181 274/81/188
f 238/92/135 236/96/133 282/96/182 283/92/189
f 256/61/153 254/64/151 291/64/183 292/61/190
f 212/65/109 210/62/107 269/62/184 270/65/191
f 230/97/127 228/93/125 278/93/185 279/97/192
f 248/76/145 246/80/143 287/80/186 288/76/193
f 204/49/101 202/48/100 265/48/194 266/49/161
f 202/137/100 264/136/163 296/136/187 265/137/194
f 222/85/119 220/81/117 274/81/188 275/85/165
f 240/90/137 238/92/135 283/92/189 284/90/167
f 258/57/155 256/61/153 292/61/190 293/57/169
f 214/69/111 212/65/109 270/65/191 271/69/171
f 232/101/129 230/97/127 279/97/192 280/101/173
f 250/72/147 248/76/145 288/76/193 289/72/175
f 297/47/6 298/48/6 300/49/7 299/50/7
f 299/50/7 300/49/7 302/55/10 301/56/10
f 301/56/10 302/55/10 304/58/12 303/59/12
f 303/59/12 304/58/12 306/62/14 305/2/14
f 305/2/14 306/62/14 308/65/16 307/66/16
f 307/66/16 308/65/16 310/69/18 309/70/18
f 309/70/18 310/69/18 312/73/19 311/74/19
f 311/74/19 312/73/19 314/77/4 313/78/4
f 313/78/4 314/77/4 316/81/22 315/82/22
f 315/82/22 316/81/22 318/85/24 317/86/24
f 317/86/24 318/85/24 320/87/26 319/88/26
f 319/88/26 320/87/26 322/6/28 321/1/28
f 321/1/28 322/6/28 324/93/30 323/94/30
f 323/94/30 324/93/30 326/97/32 325/98/32
f 325/98/32 326/97/32 328/101/33 327/102/33
f 327/102/33 328/101/33 330/100/2 329/99/2
f 329/99/2 330/100/2 332/96/31 331/95/31
f 331/95/31 332/96/31 334/92/29 333/91/29
f 333/91/29 334/92/29 336/90/27 335/89/27
f 335/89/27 336/90/27 338/7/25 337/13/25
f 337/13/25 338/7/25 340/84/23 339/83/23
f 339/83/23 340/84/23 342/80/21 341/79/21
f 341/79/21 342/80/21 344/76/20 343/75/20
f 343/75/20 344/76/20 346/72/1 345/71/1
f 345/71/1 346/72/1 348/68/17 347/67/17
f 347/67/17 348/68/17 350/64/15 349/63/15
f 349/63/15 350/64/15 352/61/13 351/60/13
f 351/60/13 352/61/13 354/57/11 353/12/11
f 353/12/11 354/57/11 356/52/8 355/51/8
f 355/51/8 356/52/8 358/53/9 357/54/9
f 300/15/5 298/16/5 360/17/5 358/18/5 356/19/5 354/20/5 352/21/5 350/22/5 348/23/5 346/24/5 344/25/5 342/26/5 340/27/5 338/28/5 336/29/5 334/30/5 332/31/5 330/32/5 328/33/5 326/34/5 324/35/5 322/36/5 320/37/5 318/38/5 316/39/5 314/40/5 312/41/5 310/42/5 308/43/5 306/44/5 304/45/5 302/46/5
f 357/54/9 358/53/9 360/136/34 359/135/34
f 359/135/34 360/136/34 298/137/6 297/138/6
f 297/103/3 299/104/3 301/105/3 303/106/3 305/107/3 307/108/3 309/109/3 311/110/3 313/111/3 315/112/3 317/113/3 319/114/3 321/115/3 323/116/3 325/117/3 327/118/3 329/119/3 331/120/3 333/121/3 335/122/3 337/123/3 339/124/3 341/125/3 343/126/3 345/127/3 347/128/3 349/129/3 351/130/3 353/131/3 355/132/3 357/133/3 359/134/3
f 362/103/6 363/104/6 364/105/6 365/106/6 366/107/6 367/108/6 368/109/6 369/110/6 370/111/6 371/112/6 372/113/6 373/114/6 374/115/6 375/116/6 376/117/6 377/118/6 378/119/6 379/120/6 380/121/6 381/122/6 382/123/6 383/124/6 384/125/6 385/126/6 386/127/6 387/128/6 388/129/6 389/130/6 390/131/6 391/132/6 392/133/6 393/134/6
f 167/102/195 169/99/196 378/99/196 377/102/197
f 185/71/198 187/67/199 387/67/200 386/71/198
f 141/56/201 143/59/202 365/59/203 364/56/204
f 159/88/205 161/1/206 374/1/207 373/88/208
f 177/13/209 179/83/210 383/83/211 382/13/212
f 195/51/213 197/54/214 392/54/215 391/51/216
f 151/74/96 153/78/217 370/78/217 369/74/97
f 169/99/196 171/95/218 379/95/219 378/99/196
f 187/67/199 189/63/220 388/63/221 387/67/200
f 143/59/202 145/2/222 366/2/223 365/59/203
f 161/1/206 163/94/224 375/94/225 374/1/207
f 179/83/210 181/79/226 384/79/227 383/83/211
f 197/54/214 199/135/228 393/135/229 392/54/215
f 153/78/217 155/82/230 371/82/231 370/78/217
f 171/95/218 173/91/232 380/91/233 379/95/219
f 189/63/220 191/60/234 389/60/235 388/63/221
f 145/2/222 147/66/236 367/66/237 366/2/223
f 163/94/224 165/98/238 376/98/239 375/94/225
f 181/79/226 183/75/240 385/75/241 384/79/227
f 137/47/242 139/50/243 363/50/244 362/47/242
f 199/135/228 137/138/242 362/138/242 393/135/229
f 155/82/230 157/86/245 372/86/246 371/82/231
f 173/91/232 175/89/247 381/89/248 380/91/233
f 191/60/234 193/12/249 390/12/250 389/60/235
f 147/66/236 149/70/95 368/70/98 367/66/237
f 165/98/238 167/102/195 377/102/197 376/98/239
f 183/75/240 185/71/198 386/71/198 385/75/241
f 139/50/243 141/56/201 364/56/204 363/50/244
f 157/86/245 159/88/205 373/88/208 372/86/246
f 175/89/247 177/13/209 382/13/212 381/89/248
f 193/12/249 195/51/213 391/51/216 390/12/250
