# Blender 4.2.0
# www.blender.org
mtllib steps.mtl
o Cube
v -6.411897 0.003204 3.185613
v -6.411897 0.003204 -3.185613
v 4.808923 0.003204 3.185613
v 4.808923 0.799608 3.185613
v 3.205948 0.799608 3.185613
v 3.205948 1.596011 3.185613
v 1.602974 1.596011 3.185613
v 1.602974 2.392414 3.185613
v 0.000000 2.392414 3.185613
v 0.000000 3.188817 3.185613
v -1.602974 3.188817 3.185613
v -1.602974 3.985220 3.185613
v -3.205948 3.985220 3.185613
v -3.205948 4.781624 3.185613
v -4.808923 4.781624 3.185613
v -4.808923 5.578027 3.185613
v -6.411897 5.578027 3.185613
v -6.411897 5.578027 -3.185613
v -4.808923 5.578027 -3.185613
v -4.808923 4.781624 -3.185613
v -3.205948 4.781624 -3.185613
v -3.205948 3.985220 -3.185613
v -1.602974 3.985220 -3.185613
v -1.602974 3.188817 -3.185613
v 0.000000 3.188817 -3.185613
v 0.000000 2.392414 -3.185613
v 1.602974 2.392414 -3.185613
v 1.602974 1.596011 -3.185613
v 3.205948 1.596011 -3.185613
v 3.205948 0.799608 -3.185613
v 4.808923 0.799608 -3.185613
v 4.808923 0.003204 -3.185613
vn -0.0000 -1.0000 -0.0000
vn -1.0000 -0.0000 -0.0000
vn -0.0000 1.0000 -0.0000
vn 1.0000 -0.0000 -0.0000
vn -0.0000 -0.0000 -1.0000
vn -0.0000 -0.0000 1.0000
vt 0.000000 0.000000
vt 0.375000 0.500000
vt 0.375000 0.750000
vt 0.875000 0.750000
vt 0.875000 0.500000
vt 0.843750 0.750000
vt 0.843750 0.500000
vt 0.812500 0.750000
vt 0.812500 0.500000
vt 0.781250 0.750000
vt 0.781250 0.500000
vt 0.500000 0.750000
vt 0.500000 0.500000
vt 0.468750 0.750000
vt 0.468750 0.500000
vt 0.437500 0.750000
vt 0.437500 0.500000
vt 0.406250 0.750000
vt 0.406250 0.500000
s 0
f 2/1/1 32/2/1 3/3/1 1/1/1
f 1/1/2 17/4/2 18/5/2 2/1/2
f 18/5/3 17/4/3 16/6/3 19/7/3
f 19/7/4 16/6/4 15/6/4 20/7/4
f 20/7/3 15/6/3 14/8/3 21/9/3
f 21/9/4 14/8/4 13/8/4 22/9/4
f 22/9/3 13/8/3 12/10/3 23/11/3
f 23/11/4 12/10/4 11/10/4 24/11/4
f 24/11/3 11/10/3 10/12/3 25/13/3
f 25/13/4 10/12/4 9/14/4 26/15/4
f 26/15/3 9/14/3 8/14/3 27/15/3
f 27/15/4 8/14/4 7/16/4 28/17/4
f 28/17/3 7/16/3 6/16/3 29/17/3
f 29/17/4 6/16/4 5/18/4 30/19/4
f 30/19/3 5/18/3 4/18/3 31/19/3
f 31/19/4 4/18/4 3/3/4 32/2/4
f 2/1/5 18/5/5 19/7/5 20/7/5 21/9/5 22/9/5 23/11/5 24/11/5 25/13/5 26/15/5 27/15/5 28/17/5 29/17/5 30/19/5 31/19/5 32/2/5
f 3/3/6 4/18/6 5/18/6 6/16/6 7/16/6 8/14/6 9/14/6 10/12/6 11/10/6 12/10/6 13/8/6 14/8/6 15/6/6 16/6/6 17/4/6 1/1/6
